<svg xmlns="http://www.w3.org/2000/svg" width="1120" height="280" viewBox="0 0 1120 280">
    <g transform="matrix(2.08182,0,0,2.08182,-121.251,-49.4127)">
        <g transform="matrix(100,0,0,100,60.9965,126)">
            <path d="M0.089,0L0.089,-0.745L0.595,-0.147L0.595,-0.715L0.656,-0.715L0.656,0.021L0.15,-0.578L0.15,0L0.089,0Z" fill="#C9D1D9" />
        </g>
        <g transform="matrix(100,0,0,100,164.341,126)">
            <path d="M0.089,0L0.089,-0.715L0.443,-0.715L0.443,-0.654L0.154,-0.654L0.154,-0.43L0.443,-0.43L0.443,-0.369L0.154,-0.369L0.154,-0.061L0.443,-0.061L0.443,0L0.089,0Z" fill="#C9D1D9" />
        </g>
        <g transform="matrix(100,0,0,100,244.491,126)">
            <path d="M0.216,0L0.216,-0.654L0.019,-0.654L0.019,-0.715L0.478,-0.715L0.478,-0.654L0.281,-0.654L0.281,0L0.216,0Z" fill="#C9D1D9" />
        </g>
        <g transform="matrix(100,0,0,100,323.031,126)">
            <path d="M0.154,-0.658L0.154,-0.394L0.219,-0.394C0.28,-0.394 0.322,-0.404 0.346,-0.423C0.37,-0.442 0.382,-0.475 0.382,-0.522C0.382,-0.571 0.369,-0.606 0.345,-0.627C0.32,-0.648 0.278,-0.658 0.219,-0.658L0.154,-0.658ZM0.523,0L0.444,0L0.193,-0.341L0.154,-0.341L0.154,0L0.089,0L0.089,-0.715L0.22,-0.715C0.298,-0.715 0.356,-0.699 0.394,-0.667C0.433,-0.634 0.452,-0.585 0.452,-0.52C0.452,-0.464 0.436,-0.421 0.403,-0.389C0.37,-0.357 0.324,-0.341 0.266,-0.341L0.523,0Z" fill="#C9D1D9" />
        </g>
        <g transform="matrix(0.10084,0,0,0.10084,398.318,38.8234)">
            <circle cx="512" cy="512" r="431" fill="none" stroke="#C9D1D9" stroke-width="42px"/>
            <path d="M296,392L540,280" stroke="#C9D1D9" stroke-width="12px"/>
            <path d="M296,632L540,280" stroke="#C9D1D9" stroke-width="12px"/>
            <path d="M296,392L540,435" stroke="#C9D1D9" stroke-width="12px"/>
            <path d="M296,632L540,435" stroke="#C9D1D9" stroke-width="12px"/>
            <path d="M296,392L540,590" stroke="#C9D1D9" stroke-width="12px"/>
            <path d="M296,632L540,590" stroke="#C9D1D9" stroke-width="12px"/>
            <path d="M296,392L540,744" stroke="#C9D1D9" stroke-width="12px"/>
            <path d="M296,632L540,744" stroke="#C9D1D9" stroke-width="12px"/>
            <path d="M540,280L785,512" stroke="#C9D1D9" stroke-width="12px"/>
            <path d="M540,590L785,512" stroke="#C9D1D9" stroke-width="12px"/>
            <path d="M540,435L785,512" stroke="#C9D1D9" stroke-width="12px"/>
            <path d="M540,744L785,512" stroke="#C9D1D9" stroke-width="12px"/>
            <g transform="translate(296,392)">
                <circle cx="0" cy="0" r="51" fill="#C9D1D9" />
            </g>
            <g transform="translate(296,632)">
                <circle cx="0" cy="0" r="51" fill="#C9D1D9" />
            </g>
            <g transform="translate(540,280)">
                <circle cx="0" cy="0" r="51" fill="#C9D1D9" />
            </g>
            <g transform="translate(540,435)">
                <circle cx="0" cy="0" r="51" fill="#C9D1D9" />
            </g>
            <g transform="translate(540,590)">
                <circle cx="0" cy="0" r="51" fill="#C9D1D9" />
            </g>
            <g transform="translate(540,744)">
                <circle cx="0" cy="0" r="51" fill="#C9D1D9" />
            </g>
            <g transform="translate(785,512)">
                <circle cx="0" cy="0" r="51" fill="#C9D1D9" />
            </g>
        </g>
        <g transform="matrix(100,0,0,100,520.979,126)">
            <path d="M0.089,0L0.089,-0.745L0.595,-0.147L0.595,-0.715L0.656,-0.715L0.656,0.021L0.15,-0.578L0.15,0L0.089,0Z" fill="#C9D1D9" />
        </g>
    </g>
</svg>
