<svg xmlns="http://www.w3.org/2000/svg" viewBox="0 0 20 20">
    <path d="M9.45 3.023c-2.314.202-4.303 1.453-5.504 3.463-.378.633-.702 1.523-.853 2.347-.102.556-.102 1.778 0 2.334a7.244 7.244 0 0 0 1.245 2.95c.276.393 1.152 1.269 1.545 1.545a7.184 7.184 0 0 0 2.95 1.242c.217.037.623.075.934.085a6.98 6.98 0 0 0 4.633-1.546c.327-.265.938-.894 1.174-1.21 1.602-2.14 1.872-4.906.712-7.311-.523-1.086-1.442-2.119-2.491-2.801a8.606 8.606 0 0 0-1.603-.769c-.841-.274-1.908-.402-2.742-.329m1.02 2.01a4.992 4.992 0 0 1 4.256 3.35c.414 1.214.33 2.66-.218 3.767-.716 1.447-1.962 2.415-3.541 2.754-.505.109-1.429.109-1.934 0-1.582-.339-2.824-1.305-3.541-2.754-.548-1.107-.632-2.553-.218-3.767a4.91 4.91 0 0 1 1.169-1.879 4.926 4.926 0 0 1 4.027-1.471" fill-rule="evenodd"/>
</svg>
